<svg width="78" height="70" viewBox="0 0 78 70" fill="none" xmlns="http://www.w3.org/2000/svg">
<g clip-path="url(#clip0_1_554)" filter="url(#filter0_dd_1_554)">
<path d="M36.6496 32.7351H38.9817V43.2296H36.6496V32.7351Z" fill="#2196F3"/>
<path d="M45.978 37.3993H48.3101V43.2296H45.978V37.3993Z" fill="#2196F3"/>
<path d="M27.3211 40.8975H29.6532V43.2296H27.3211V40.8975Z" fill="#2196F3"/>
<path d="M20.3248 39.7314H22.6569V43.2295H20.3248V39.7314Z" fill="#2196F3"/>
<path d="M7.49817 61.8865H63.4689C65.4007 61.8865 66.967 60.3202 66.967 58.3883V53.7241C66.967 51.7923 65.4007 50.2259 63.4689 50.2259H62.3028V21.1469L68.9262 14.8725C70.4635 15.6303 72.3242 15.1702 73.3302 13.7816C74.3369 12.3935 74.1957 10.4821 72.9966 9.25684C71.7975 8.03157 69.8901 7.8488 68.4798 8.82412C67.0701 9.80001 66.569 11.6499 67.2933 13.2037L62.3028 17.9345V15.2443C62.3028 13.3124 60.7365 11.7461 58.8046 11.7461H12.1624C10.2305 11.7461 8.66422 13.3124 8.66422 15.2443V50.2259H7.49817C5.56632 50.2259 4 51.7923 4 53.7241V58.3883C4 60.3202 5.56632 61.8865 7.49817 61.8865ZM70.4652 10.58C71.1091 10.58 71.6312 11.1021 71.6312 11.7461C71.6312 12.39 71.1091 12.9121 70.4652 12.9121C69.8212 12.9121 69.2991 12.39 69.2991 11.7461C69.2991 11.1021 69.8212 10.58 70.4652 10.58ZM10.9963 15.2443C10.9963 14.6003 11.5184 14.0782 12.1624 14.0782H58.8046C59.4486 14.0782 59.9707 14.6003 59.9707 15.2443V20.1414L57.6386 22.3573V17.5764C57.6386 16.9324 57.1165 16.4103 56.4725 16.4103H14.4945C13.8506 16.4103 13.3284 16.9324 13.3284 17.5764V46.7278C13.3284 47.3717 13.8506 47.8938 14.4945 47.8938H56.4725C57.1165 47.8938 57.6386 47.3717 57.6386 46.7278V25.5651L59.9707 23.3554V50.2259H10.9963V15.2443ZM21.4908 30.403C19.9131 30.3984 18.5279 31.4495 18.1083 32.9703C17.6886 34.491 18.3383 36.104 19.6951 36.9091C21.0513 37.7142 22.7793 37.5121 23.9129 36.4149L27.9662 38.4487C28.4371 38.6844 29.0081 38.5739 29.3583 38.1805L37.9745 28.4871L46.4443 34.8338C46.8987 35.1743 47.5329 35.1378 47.9452 34.7478L55.3065 27.7748V45.5617H15.6606V18.7424H55.3065V24.5619L47.0564 32.3747L38.5154 25.9716C38.0303 25.6084 37.3476 25.6767 36.9445 26.1294L28.2099 35.9571L24.9446 34.3242C24.9685 34.1841 24.9833 34.0429 24.989 33.9012C24.989 31.9693 23.4227 30.403 21.4908 30.403ZM22.6569 33.9012C22.6569 34.5451 22.1348 35.0672 21.4908 35.0672C20.8469 35.0672 20.3248 34.5451 20.3248 33.9012C20.3248 33.2572 20.8469 32.7351 21.4908 32.7351C22.1348 32.7351 22.6569 33.2572 22.6569 33.9012ZM29.6532 52.5581H41.3138V53.7241C41.3138 54.3681 40.7917 54.8902 40.1477 54.8902H30.8193C30.1753 54.8902 29.6532 54.3681 29.6532 53.7241V52.5581ZM6.33211 53.7241C6.33211 53.0802 6.85422 52.5581 7.49817 52.5581H27.3211V53.7241C27.3211 55.656 28.8874 57.2223 30.8193 57.2223H40.1477C42.0796 57.2223 43.6459 55.656 43.6459 53.7241V52.5581H63.4689C64.1128 52.5581 64.6349 53.0802 64.6349 53.7241V58.3883C64.6349 59.0323 64.1128 59.5544 63.4689 59.5544H7.49817C6.85422 59.5544 6.33211 59.0323 6.33211 58.3883V53.7241Z" fill="#212121"/>
</g>
<defs>
<filter id="filter0_dd_1_554" x="0" y="0" width="78" height="78" filterUnits="userSpaceOnUse" color-interpolation-filters="sRGB">
<feFlood flood-opacity="0" result="BackgroundImageFix"/>
<feColorMatrix in="SourceAlpha" type="matrix" values="0 0 0 0 0 0 0 0 0 0 0 0 0 0 0 0 0 0 127 0" result="hardAlpha"/>
<feOffset dy="4"/>
<feGaussianBlur stdDeviation="2"/>
<feComposite in2="hardAlpha" operator="out"/>
<feColorMatrix type="matrix" values="0 0 0 0 0 0 0 0 0 0 0 0 0 0 0 0 0 0 0.25 0"/>
<feBlend mode="normal" in2="BackgroundImageFix" result="effect1_dropShadow_1_554"/>
<feColorMatrix in="SourceAlpha" type="matrix" values="0 0 0 0 0 0 0 0 0 0 0 0 0 0 0 0 0 0 127 0" result="hardAlpha"/>
<feOffset dy="4"/>
<feGaussianBlur stdDeviation="2"/>
<feComposite in2="hardAlpha" operator="out"/>
<feColorMatrix type="matrix" values="0 0 0 0 0 0 0 0 0 0 0 0 0 0 0 0 0 0 0.25 0"/>
<feBlend mode="normal" in2="effect1_dropShadow_1_554" result="effect2_dropShadow_1_554"/>
<feBlend mode="normal" in="SourceGraphic" in2="effect2_dropShadow_1_554" result="shape"/>
</filter>
<clipPath id="clip0_1_554">
<rect width="70" height="70" fill="white" transform="translate(4)"/>
</clipPath>
</defs>
</svg>
